<?xml version="1.0" standalone="no"?>
<!DOCTYPE svg PUBLIC "-//W3C//DTD SVG 20010904//EN"
 "http://www.w3.org/TR/2001/REC-SVG-20010904/DTD/svg10.dtd">
<svg version="1.0" xmlns="http://www.w3.org/2000/svg"
 width="578.000000pt" height="214.000000pt" viewBox="0 0 578.000000 214.000000"
 preserveAspectRatio="xMidYMid meet">

<g transform="translate(0.000000,214.000000) scale(0.100000,-0.100000)"
fill="#000000" stroke="none">
<path d="M20 1670 l0 -450 1739 0 1740 0 -54 113 c-29 61 -126 263 -214 447
l-159 335 -1526 3 -1526 2 0 -450z"/>
<path d="M3271 2113 c0 -5 141 -303 313 -663 l312 -655 592 -3 c417 -1 592 1
592 9 0 19 -348 777 -483 1052 l-131 267 -598 0 c-329 0 -598 -3 -597 -7z"/>
<path d="M706 887 l-49 -23 141 -59 c78 -33 141 -64 139 -68 -2 -7 -63 -35
-217 -99 l-25 -10 30 -13 c21 -9 31 -22 35 -43 l5 -29 129 58 c71 33 132 56
135 53 3 -3 4 -78 2 -166 -3 -154 -2 -161 15 -153 11 4 31 12 47 17 l27 10 0
198 0 197 -167 77 c-93 42 -175 76 -183 76 -8 -1 -37 -11 -64 -23z m304 -99
c41 -17 80 -35 86 -39 15 -12 6 -361 -10 -371 -23 -15 -26 -6 -27 80 -1 48 -4
119 -8 159 l-6 72 -125 -53 -125 -52 -13 24 c-7 14 -11 26 -10 27 2 1 53 24
115 51 62 27 109 51 105 54 -4 4 -61 30 -127 60 -66 30 -124 57 -129 62 -5 4
1 11 15 16 18 7 42 1 104 -25 44 -19 114 -48 155 -65z"/>
<path d="M462 780 l-43 -19 3 -52 c4 -65 28 -81 28 -19 0 36 2 41 18 35 40
-17 52 -17 52 -2 0 8 -10 18 -22 21 -22 7 -22 8 10 23 66 34 25 45 -46 13z"/>
<path d="M1698 660 c-54 -33 -41 -82 25 -99 54 -13 75 -34 57 -56 -19 -23 -77
-19 -90 5 -12 23 -30 27 -30 7 0 -44 101 -65 133 -29 20 22 22 55 5 70 -7 5
-32 15 -56 22 -47 12 -61 32 -42 55 17 21 47 19 67 -5 20 -23 33 -26 33 -6 0
31 -70 55 -102 36z"/>
<path d="M1280 582 c0 -92 13 -112 73 -112 60 0 77 25 77 116 0 56 -3 75 -12
72 -8 -3 -14 -30 -16 -73 -3 -78 -13 -95 -51 -95 -42 0 -51 17 -51 97 0 42 -4
73 -10 73 -6 0 -10 -33 -10 -78z"/>
<path d="M1474 647 c-3 -8 -4 -49 -2 -93 l3 -79 59 0 c49 1 61 4 77 24 26 32
25 100 -2 135 -18 22 -28 26 -75 26 -36 0 -56 -4 -60 -13z m115 -21 c7 -8 15
-30 18 -49 4 -29 1 -40 -20 -61 -17 -17 -37 -26 -57 -26 l-30 0 0 75 0 75 39
0 c21 0 44 -6 50 -14z"/>
<path d="M1906 588 c-21 -29 -20 -67 0 -97 14 -20 22 -22 54 -17 35 5 38 4 33
-14 -8 -29 -49 -37 -73 -15 -18 17 -20 17 -20 1 0 -20 45 -39 72 -30 35 11 49
47 46 120 l-3 67 -47 4 c-39 4 -48 1 -62 -19z m85 -24 c10 -28 -11 -68 -39
-72 -31 -5 -50 38 -34 74 15 32 61 31 73 -2z"/>
<path d="M2050 540 c0 -40 4 -70 10 -70 6 0 10 15 10 34 0 46 16 86 35 86 8 0
15 5 15 10 0 14 -23 13 -38 -2 -9 -9 -12 -9 -12 0 0 7 -4 12 -10 12 -6 0 -10
-30 -10 -70z"/>
<path d="M2146 588 c-36 -51 -8 -118 48 -118 19 0 40 8 49 18 23 25 22 85 -1
105 -27 25 -78 22 -96 -5z m92 -42 c4 -34 -13 -56 -44 -56 -43 0 -58 56 -23
91 18 18 23 19 42 6 12 -8 23 -26 25 -41z"/>
<path d="M2290 551 c0 -69 11 -82 68 -78 l42 2 0 68 c0 38 -4 67 -10 67 -5 0
-10 -21 -10 -47 0 -59 -10 -76 -41 -71 -22 3 -24 9 -27 61 -4 75 -22 74 -22
-2z"/>
<path d="M2440 513 c0 -55 4 -93 10 -93 6 0 10 13 10 29 0 28 1 29 39 24 32
-4 41 -2 55 18 20 30 21 68 0 97 -12 18 -23 22 -65 20 l-49 -2 0 -93z m90 67
c34 -34 18 -90 -25 -90 -42 0 -59 58 -28 92 21 23 28 23 53 -2z"/>
<path d="M420 417 l0 -54 43 -17 c50 -19 57 -20 57 -6 0 6 -16 18 -35 27 -29
14 -34 22 -37 56 -5 64 -28 59 -28 -6z"/>
<path d="M760 285 c0 -39 -4 -41 -40 -20 -31 18 -40 18 -40 2 0 -7 21 -23 46
-35 l45 -22 45 19 c24 11 44 27 44 35 0 13 -4 13 -35 0 l-35 -14 0 35 c0 24
-5 35 -15 35 -10 0 -15 -11 -15 -35z"/>
</g>
</svg>
